HIERARCHY
ROOT Hips
{
	OFFSET 0.000000 0.000000 0.000000
	CHANNELS 6 Xposition Yposition Zposition Xrotation Yrotation Zrotation
	JOINT LeftUpLeg_virtual
	{
		OFFSET 0.000000 0.000000 0.000000
		CHANNELS 3 Xrotation Yrotation Zrotation
		JOINT LeftUpLeg
		{
			OFFSET 10.205400 -3.823500 0.155100
			CHANNELS 3 Xrotation Yrotation Zrotation
			JOINT LeftLeg
			{
				OFFSET 0.708757 -12.982077 0.567790
				CHANNELS 3 Xrotation Yrotation Zrotation
				JOINT LeftFoot
				{
					OFFSET -0.708756 -10.717838 -2.184338
					CHANNELS 3 Xrotation Yrotation Zrotation
					JOINT LeftToeBase
					{
						OFFSET 0.108149 -7.191104 7.560241
						CHANNELS 3 Xrotation Yrotation Zrotation
						JOINT LeftToe_End
						{
							OFFSET 0.070230 0.081724 4.490308
							CHANNELS 3 Xrotation Yrotation Zrotation
							End Site
							{
								OFFSET 0 0 0
							}
						}
					}
				}
			}
		}
	}
	JOINT RightUpLeg_virtual
	{
		OFFSET 0.000000 0.000000 0.000000
		CHANNELS 3 Xrotation Yrotation Zrotation
		JOINT RightUpLeg
		{
			OFFSET -10.205400 -3.823500 0.005500
			CHANNELS 3 Xrotation Yrotation Zrotation
			JOINT RightLeg
			{
				OFFSET -0.708756 -12.982134 0.610632
				CHANNELS 3 Xrotation Yrotation Zrotation
				JOINT RightFoot
				{
					OFFSET 0.708754 -10.717769 -1.945823
					CHANNELS 3 Xrotation Yrotation Zrotation
					JOINT RightToeBase
					{
						OFFSET -0.108140 -7.191069 7.372968
						CHANNELS 3 Xrotation Yrotation Zrotation
						JOINT RightToe_End
						{
							OFFSET -0.070227 0.081735 4.479403
							CHANNELS 3 Xrotation Yrotation Zrotation
							End Site
							{
								OFFSET 0 0 0
							}
						}
					}
				}
			}
		}
	}
	JOINT Spine_virtual
	{
		OFFSET 0.000000 0.000000 0.000000
		CHANNELS 3 Xrotation Yrotation Zrotation
		JOINT Spine
		{
			OFFSET 0.000000 6.876099 0.125700
			CHANNELS 3 Xrotation Yrotation Zrotation
			JOINT Spine1
			{
				OFFSET 0.000000 5.730043 0.104720
				CHANNELS 3 Xrotation Yrotation Zrotation
				JOINT Spine1_split
				{
					OFFSET 0.000000 5.730043 0.104720
					CHANNELS 3 Xrotation Yrotation Zrotation
					JOINT Spine2
					{
						OFFSET 0.000000 5.730043 0.104720
						CHANNELS 3 Xrotation Yrotation Zrotation
						JOINT Neck_virtual
						{
							OFFSET 0.000000 0.000000 0.000000
							CHANNELS 3 Xrotation Yrotation Zrotation
							JOINT Neck
							{
								OFFSET 0.000000 10.314075 0.188496
								CHANNELS 3 Xrotation Yrotation Zrotation
								JOINT Head
								{
									OFFSET 0.000000 7.643700 -2.377400
									CHANNELS 3 Xrotation Yrotation Zrotation
									JOINT HeadTop_End
									{
										OFFSET 0.000000 43.788605 -13.619600
										CHANNELS 3 Xrotation Yrotation Zrotation
										End Site
										{
											OFFSET 0 0 0
										}
									}
								}
							}
						}
						JOINT LeftShoulder_virtual
						{
							OFFSET 0.000000 0.000000 0.000000
							CHANNELS 3 Xrotation Yrotation Zrotation
							JOINT LeftShoulder
							{
								OFFSET 2.196100 4.412489 0.087492
								CHANNELS 3 Xrotation Yrotation Zrotation
								JOINT LeftShoulder_split
								{
									OFFSET 2.196100 4.412489 0.087492
									CHANNELS 3 Xrotation Yrotation Zrotation
									JOINT LeftArm
									{
										OFFSET 8.771219 -2.981674 -0.026999
										CHANNELS 3 Xrotation Yrotation Zrotation
										JOINT LeftForeArm
										{
											OFFSET 8.512804 0.000000 -0.000000
											CHANNELS 3 Xrotation Yrotation Zrotation
											JOINT LeftHand
											{
												OFFSET 18.484802 0.000000 -0.000000
												CHANNELS 3 Xrotation Yrotation Zrotation
												End Site
												{
													OFFSET 0 0 0
												}
											}
										}
									}
								}
							}
						}
						JOINT RightShoulder_virtual
						{
							OFFSET 0.000000 0.000000 0.000000
							CHANNELS 3 Xrotation Yrotation Zrotation
							JOINT RightShoulder
							{
								OFFSET -2.196100 4.412496 0.070690
								CHANNELS 3 Xrotation Yrotation Zrotation
								JOINT RightShoulder_split
								{
									OFFSET -2.196100 4.412496 0.070690
									CHANNELS 3 Xrotation Yrotation Zrotation
									JOINT RightArm
									{
										OFFSET -8.771282 -2.981682 -0.094208
										CHANNELS 3 Xrotation Yrotation Zrotation
										JOINT RightForeArm
										{
											OFFSET -8.494598 0.000000 0.000000
											CHANNELS 3 Xrotation Yrotation Zrotation
											JOINT RightHand
											{
												OFFSET -18.483803 0.000000 0.000001
												CHANNELS 3 Xrotation Yrotation Zrotation
												End Site
												{
													OFFSET 0 0 0
												}
											}
										}
									}
								}
							}
						}
					}
				}
			}
		}
	}
}
MOTION
Frames: 4
Frame Time: 0.03333333
5.877605 14.363909 171.063431 0.000000 0.000000 0.000000 55.459855 -41.727121 90.636043 -58.496602 -6.647447 16.376927 29.315742 -0.290701 4.129312 -4.417320 -0.900635 -12.781410 1.244026 4.037908 -14.359537 0.000000 0.000000 0.000000 54.063116 -46.231980 95.419095 -63.627372 -37.483218 -35.972940 115.598807 30.211300 2.580978 10.863303 5.306263 26.809642 11.588296 -0.469102 8.197547 0.000000 0.000000 0.000000 57.648675 -49.413096 91.608601 9.315871 -6.413005 1.012006 22.274779 -11.804253 -0.037375 -0.618282 4.168686 -1.451120 0.000000 0.000000 0.000000 17.120274 -12.713601 -0.081184 13.572209 4.487313 -5.532224 -10.308770 24.129843 -20.435876 0.000000 0.000000 0.000000 20.619204 -12.651068 1.147573 1.024166 1.166137 -19.523561 -3.748855 0.475120 2.539227 5.436170 2.311796 -57.937162 28.996482 -15.762174 -4.656079 0.000000 0.000000 0.000000 19.931867 -12.898708 0.133312 3.490906 23.313404 4.072841 2.886575 4.552879 6.801450 -31.635162 -8.580969 -0.313973 -27.478971 19.062349 3.742901 0.000000 0.000000 0.000000 
5.956483 14.308956 176.658035 0.000000 0.000000 0.000000 54.375915 -40.618568 85.594490 -66.958680 -9.611934 19.472897 31.555242 -0.726038 -0.668441 -2.377526 -0.597418 -17.305341 1.907548 4.043401 -15.906964 0.000000 0.000000 0.000000 51.445702 -44.308708 89.232508 -69.969974 -34.078532 -52.947005 115.931123 34.454753 2.729176 18.109820 8.497142 28.416801 12.634190 -1.153791 8.738598 0.000000 0.000000 0.000000 55.242065 -49.110621 85.506510 10.038188 -5.684876 0.872756 22.037078 -9.784279 -0.185343 -1.353576 3.961013 -0.997507 0.000000 0.000000 0.000000 17.060433 -10.567469 -0.464738 10.749671 4.658089 -3.715759 -14.278033 24.004058 -16.645277 0.000000 0.000000 0.000000 20.062774 -10.494510 0.613793 0.617463 0.518599 -20.001365 -2.994943 0.897804 3.224352 8.757123 3.929166 -57.952605 30.759812 -16.253721 -5.165535 0.000000 0.000000 0.000000 19.668158 -10.678789 -0.116354 2.741579 22.878625 5.155224 3.147535 4.171481 7.515436 -33.890326 -11.618244 2.764683 -28.179679 17.706798 2.391117 0.000000 0.000000 0.000000 
6.113365 13.969465 181.627487 0.000000 0.000000 0.000000 51.202564 -39.960124 78.399657 -78.825185 -11.779586 21.946345 37.517437 -0.982499 -5.917396 2.233323 -1.599365 -18.262565 2.179150 4.204907 -16.691312 0.000000 0.000000 0.000000 47.561264 -42.976097 80.359006 -70.438689 -32.068650 -63.363105 116.397830 36.824091 2.348985 22.029479 8.689769 28.403895 14.855631 -1.449427 9.217235 0.000000 0.000000 0.000000 50.506841 -48.745008 77.109448 10.562827 -4.342200 0.181278 21.206578 -7.432310 -0.618730 -1.582860 3.401632 0.276599 0.000000 0.000000 0.000000 16.695569 -8.121407 -1.157805 7.154754 4.721831 -1.688501 -17.882195 23.060160 -12.670580 0.000000 0.000000 0.000000 19.063664 -8.043433 -0.347440 0.221351 0.136312 -20.302368 -1.311809 -0.310546 3.348844 12.522849 5.303339 -55.753120 32.361286 -18.091498 -4.896209 0.000000 0.000000 0.000000 19.078738 -8.056294 -0.693120 1.954311 21.577780 6.831092 4.294574 4.244291 7.344380 -33.750348 -16.887233 10.909668 -28.469613 20.632876 2.404053 0.000000 0.000000 0.000000 
6.368647 13.368082 186.155762 0.000000 0.000000 0.000000 46.335515 -39.913904 69.156178 -92.735124 -12.797144 23.910035 47.827177 -1.374088 -10.544233 8.100651 -3.296029 -15.318250 1.682409 4.548403 -16.481542 0.000000 0.000000 0.000000 42.462241 -42.634471 69.536114 -65.758766 -33.313906 -66.873911 118.207448 37.082354 1.210433 21.823667 5.858243 27.226669 18.218981 -1.381872 9.656511 0.000000 0.000000 0.000000 44.110451 -47.898146 67.100489 10.737378 -2.758955 -0.822697 19.940466 -5.263163 -1.197951 -1.219037 2.971932 1.546692 0.000000 0.000000 0.000000 16.106520 -5.875286 -1.965140 3.351312 5.025797 0.060013 -20.484960 22.304731 -9.142967 0.000000 0.000000 0.000000 17.862664 -5.823044 -1.502768 -0.030707 0.113054 -20.082132 1.016137 -2.214858 2.931118 15.720423 6.555700 -50.713946 33.438830 -20.976122 -4.007731 0.000000 0.000000 0.000000 18.238584 -5.563479 -1.415891 1.321040 19.756542 8.640953 6.297119 5.004263 6.890565 -28.936230 -22.975737 24.310535 -28.470737 27.985174 3.874808 0.000000 0.000000 0.000000 
